<svg width="75" height="75" viewBox="0 0 75 75" fill="none" xmlns="http://www.w3.org/2000/svg">
<path d="M29.3649 33.7239C33.4538 34.0144 37.5722 32.3153 37.7488 27.8701C37.8296 23.7136 37.7018 16.8083 37.9155 9.75063C37.9158 9.74962 37.9155 9.75063 37.9155 9.75063C33.9518 9.29836 29.129 9.82064 29.0939 17.1305C29.0838 19.1534 29.6068 20.1799 29.3649 33.7239Z" fill="#FFCA5F"/>
<path d="M29.365 33.724C16.3769 29.5392 11.9628 18.2151 14.0418 11.1628C14.0418 11.1628 11.6617 16.3791 10.9786 21.8455C10.5679 25.129 13.839 30.8041 18.0845 32.1409C23.6302 33.8875 29.365 33.724 29.365 33.724Z" stroke="#FFCA5F" stroke-width="0.318521" stroke-miterlimit="10"/>
<path d="M29.0018 33.6197C18.2676 27.6279 15.0706 18.2809 13.6786 11.0586" stroke="#FFCA5F" stroke-width="0.318521" stroke-miterlimit="10"/>
<path d="M29.0018 33.6197C18.2615 33.3157 8.50915 25.302 13.6786 11.0586" stroke="#FFCA5F" stroke-width="0.318521" stroke-miterlimit="10"/>
<path d="M35.4651 45.9178C35.727 41.8823 33.9737 37.8021 29.4706 37.5926C25.2604 37.4801 18.2682 37.5517 11.1189 37.2851C11.1179 37.2848 11.1189 37.2851 11.1189 37.2851C10.6922 41.1956 11.2592 45.9621 18.6624 46.0544C20.7112 46.0804 21.7466 45.572 35.4651 45.9178Z" fill="#FFCA5F"/>
<path d="M46.4665 36.7824C42.3775 36.4919 38.2591 38.191 38.0825 42.6362C38.0018 46.7927 38.1295 53.698 37.9159 60.7557C37.9159 60.7557 37.9156 60.7567 37.9159 60.7557C41.8796 61.2079 46.7024 60.6857 46.7374 53.3758C46.7476 51.3529 46.2246 50.3264 46.4665 36.7824Z" fill="#FFCA5F"/>
<path d="M46.4663 36.7824C59.4545 40.9671 63.8685 52.2912 61.7896 59.3435C61.7896 59.3435 64.1697 54.1272 64.8527 48.6609C65.2634 45.3774 61.9924 39.7023 57.7468 38.3654C52.2014 36.6178 46.4663 36.7824 46.4663 36.7824Z" stroke="#FFCA5F" stroke-width="0.318521" stroke-miterlimit="10"/>
<path d="M46.4663 36.7823C57.2006 42.7741 60.3975 52.1211 61.7895 59.3435" stroke="#FFCA5F" stroke-width="0.318521" stroke-miterlimit="10"/>
<path d="M37.3228 27.7478C37.0609 31.7833 38.8142 35.8636 43.3173 36.073C47.5275 36.1855 54.5197 36.1139 61.669 36.3806C61.669 36.3806 61.67 36.3809 61.669 36.3806C62.0957 32.4701 61.5287 27.7035 54.1255 27.6112C52.0767 27.5853 51.0413 28.0936 37.3228 27.7478Z" fill="#FFCA5F"/>
</svg>
